M48
; DRILL file {KiCad (5.1.6)-1} date 09/29/20 23:02:05
; FORMAT={-:-/ absolute / inch / decimal}
; #@! TF.CreationDate,2020-09-29T23:02:05-04:00
; #@! TF.GenerationSoftware,Kicad,Pcbnew,(5.1.6)-1
; #@! TF.FileFunction,Plated,1,2,PTH
FMAT,2
INCH
T1C0.0157
T2C0.0197
T3C0.0236
T4C0.0354
T5C0.0394
T6C0.0433
T7C0.0591
T8C0.1260
T9C0.1260
T10C0.1772
T11C0.2165
%
G90
G05
T1
X-1.8307Y0.0886
X-1.786Y0.5628
X-1.7224Y0.7579
X-1.5846Y0.7185
X-1.3927Y1.0876
T2
X1.1654Y0.1083
X1.193Y0.1751
X1.193Y0.0415
X1.2598Y0.2028
X1.2598Y0.0138
X1.3267Y0.1751
X1.3267Y0.0415
X1.3543Y0.1083
X-0.7047Y0.0984
X-0.677Y0.1652
X-0.677Y0.0316
X-0.6102Y0.1929
X-0.6102Y0.0039
X-0.5434Y0.1652
X-0.5434Y0.0316
X-0.5157Y0.0984
X-0.311Y-0.9843
X-0.2833Y-0.9174
X-0.2833Y-1.0511
X-0.2165Y-0.8898
X-0.2165Y-1.0787
X-0.1497Y-0.9174
X-0.1497Y-1.0511
X-0.122Y-0.9843
X-0.6063Y-0.9843
X-0.5786Y-0.9174
X-0.5786Y-1.0511
X-0.5118Y-0.8898
X-0.5118Y-1.0787
X-0.445Y-0.9174
X-0.445Y-1.0511
X-0.4173Y-0.9843
X-0.311Y0.0984
X-0.2833Y0.1652
X-0.2833Y0.0316
X-0.2165Y0.1929
X-0.2165Y0.0039
X-0.1497Y0.1652
X-0.1497Y0.0316
X-0.122Y0.0984
X0.7717Y0.1083
X0.7993Y0.1751
X0.7993Y0.0415
X0.8661Y0.2028
X0.8661Y0.0138
X0.933Y0.1751
X0.933Y0.0415
X0.9606Y0.1083
T3
X-0.9695Y-0.4921
X-0.9223Y-0.3769
X-0.9223Y-0.6074
X-0.8071Y-0.3297
X-0.8071Y-0.6545
X-0.6919Y-0.3769
X-0.6919Y-0.6074
X-0.6447Y-0.4921
X-0.4774Y-0.4921
X-0.4302Y-0.3769
X-0.4302Y-0.6074
X-0.315Y-0.3297
X-0.315Y-0.6545
X-0.1997Y-0.3769
X-0.1997Y-0.6074
X-0.1526Y-0.4921
X0.8022Y-0.876
X0.8493Y-0.7608
X0.8493Y-0.9912
X0.9646Y-0.7136
X0.9646Y-1.0384
X1.0798Y-0.7608
X1.0798Y-0.9912
X1.127Y-0.876
X0.8022Y-0.2953
X0.8493Y-0.18
X0.8493Y-0.4105
X0.9646Y-0.1329
X0.9646Y-0.4577
X1.0798Y-0.18
X1.0798Y-0.4105
X1.127Y-0.2953
X1.3238Y-0.876
X1.371Y-0.7608
X1.371Y-0.9912
X1.4862Y-0.7136
X1.4862Y-1.0384
X1.6014Y-0.7608
X1.6014Y-0.9912
X1.6486Y-0.876
X-1.314Y-0.8858
X-1.2668Y-0.7706
X-1.2668Y-1.0011
X-1.1516Y-0.7234
X-1.1516Y-1.0482
X-1.0363Y-0.7706
X-1.0363Y-1.0011
X-0.9892Y-0.8858
T4
X-1.5961Y-0.7776
X-1.4961Y-0.7776
X-1.5961Y-1.0039
X-1.4961Y-1.0039
T5
X-1.2008Y0.0016
X-1.2008Y-0.0984
X-1.5059Y0.2657
X-1.4059Y0.2657
X-1.3059Y0.2657
X-1.2059Y0.2657
X-1.1059Y0.2657
X-1.0059Y0.2657
X-0.9059Y0.2657
X-1.786Y0.2165
X-1.686Y0.2165
T6
X-1.5417Y0.6301
X-1.5417Y0.4801
X-1.4417Y0.6301
X-1.4417Y0.4801
X-1.3417Y0.6301
X-1.3417Y0.4801
X-1.2417Y0.6301
X-1.2417Y0.4801
X-1.1417Y0.6301
X-1.1417Y0.4801
X-1.0417Y0.6301
X-1.0417Y0.4801
X-0.9417Y0.6301
X-0.9417Y0.4801
X-0.8417Y0.6301
X-0.8417Y0.4801
X-0.7417Y0.6301
X-0.7417Y0.4801
X-0.6417Y0.6301
X-0.6417Y0.4801
X-0.5417Y0.6301
X-0.5417Y0.4801
X-0.4417Y0.6301
X-0.4417Y0.4801
X-0.3417Y0.6301
X-0.3417Y0.4801
X-0.2417Y0.6301
X-0.2417Y0.4801
X-0.1417Y0.6301
X-0.1417Y0.4801
X-0.0417Y0.6301
X-0.0417Y0.4801
X0.0583Y0.6301
X0.0583Y0.4801
X0.1583Y0.6301
X0.1583Y0.4801
X0.2583Y0.6301
X0.2583Y0.4801
X0.3583Y0.6301
X0.3583Y0.4801
X0.4583Y0.6301
X0.4583Y0.4801
X0.5583Y0.6301
X0.5583Y0.4801
X0.6583Y0.6301
X0.6583Y0.4801
X0.7583Y0.6301
X0.7583Y0.4801
X0.8583Y0.6301
X0.8583Y0.4801
X0.9583Y0.6301
X0.9583Y0.4801
X1.0583Y0.6301
X1.0583Y0.4801
X1.1583Y0.6301
X1.1583Y0.4801
X1.2583Y0.6301
X1.2583Y0.4801
X1.3583Y0.6301
X1.3583Y0.4801
X1.4583Y0.6301
X1.4583Y0.4801
X1.5583Y0.6301
X1.5583Y0.4801
T7
X-1.5551Y0.0098
X-1.5551Y-0.2657
X-1.437Y0.0098
X-1.437Y-0.2657
T8
X1.2598Y0.1083
X-0.6102Y0.0984
X-0.2165Y-0.9843
X-0.5118Y-0.9843
X-0.2165Y0.0984
T9
X0.8661Y0.1083
T10
X0.1772Y-0.5906
X0.4606Y-0.5906
X0.1772Y-0.1969
X0.4606Y-0.1969
X0.1772Y-0.9843
X0.4606Y-0.9843
T11
X-0.8071Y-0.4921
X-0.315Y-0.4921
X0.9646Y-0.876
X0.9646Y-0.2953
X1.4862Y-0.876
X-1.1516Y-0.8858
T0
M30
