G04 #@! TF.GenerationSoftware,KiCad,Pcbnew,(5.1.6)-1*
G04 #@! TF.CreationDate,2020-09-29T23:02:07-04:00*
G04 #@! TF.ProjectId,HP_power_supply_breakout,48505f70-6f77-4657-925f-737570706c79,rev?*
G04 #@! TF.SameCoordinates,Original*
G04 #@! TF.FileFunction,Paste,Top*
G04 #@! TF.FilePolarity,Positive*
%FSLAX46Y46*%
G04 Gerber Fmt 4.6, Leading zero omitted, Abs format (unit mm)*
G04 Created by KiCad (PCBNEW (5.1.6)-1) date 2020-09-29 23:02:07*
%MOMM*%
%LPD*%
G01*
G04 APERTURE LIST*
G04 APERTURE END LIST*
G36*
G01*
X-39795000Y-22922500D02*
X-39795000Y-22577500D01*
G75*
G02*
X-39647500Y-22430000I147500J0D01*
G01*
X-39352500Y-22430000D01*
G75*
G02*
X-39205000Y-22577500I0J-147500D01*
G01*
X-39205000Y-22922500D01*
G75*
G02*
X-39352500Y-23070000I-147500J0D01*
G01*
X-39647500Y-23070000D01*
G75*
G02*
X-39795000Y-22922500I0J147500D01*
G01*
G37*
G36*
G01*
X-40765000Y-22922500D02*
X-40765000Y-22577500D01*
G75*
G02*
X-40617500Y-22430000I147500J0D01*
G01*
X-40322500Y-22430000D01*
G75*
G02*
X-40175000Y-22577500I0J-147500D01*
G01*
X-40175000Y-22922500D01*
G75*
G02*
X-40322500Y-23070000I-147500J0D01*
G01*
X-40617500Y-23070000D01*
G75*
G02*
X-40765000Y-22922500I0J147500D01*
G01*
G37*
G36*
G01*
X-43675000Y-19577500D02*
X-43675000Y-19922500D01*
G75*
G02*
X-43822500Y-20070000I-147500J0D01*
G01*
X-44117500Y-20070000D01*
G75*
G02*
X-44265000Y-19922500I0J147500D01*
G01*
X-44265000Y-19577500D01*
G75*
G02*
X-44117500Y-19430000I147500J0D01*
G01*
X-43822500Y-19430000D01*
G75*
G02*
X-43675000Y-19577500I0J-147500D01*
G01*
G37*
G36*
G01*
X-42705000Y-19577500D02*
X-42705000Y-19922500D01*
G75*
G02*
X-42852500Y-20070000I-147500J0D01*
G01*
X-43147500Y-20070000D01*
G75*
G02*
X-43295000Y-19922500I0J147500D01*
G01*
X-43295000Y-19577500D01*
G75*
G02*
X-43147500Y-19430000I147500J0D01*
G01*
X-42852500Y-19430000D01*
G75*
G02*
X-42705000Y-19577500I0J-147500D01*
G01*
G37*
G36*
G01*
X-30460000Y20817500D02*
X-30460000Y20472500D01*
G75*
G02*
X-30607500Y20325000I-147500J0D01*
G01*
X-30902500Y20325000D01*
G75*
G02*
X-31050000Y20472500I0J147500D01*
G01*
X-31050000Y20817500D01*
G75*
G02*
X-30902500Y20965000I147500J0D01*
G01*
X-30607500Y20965000D01*
G75*
G02*
X-30460000Y20817500I0J-147500D01*
G01*
G37*
G36*
G01*
X-29490000Y20817500D02*
X-29490000Y20472500D01*
G75*
G02*
X-29637500Y20325000I-147500J0D01*
G01*
X-29932500Y20325000D01*
G75*
G02*
X-30080000Y20472500I0J147500D01*
G01*
X-30080000Y20817500D01*
G75*
G02*
X-29932500Y20965000I147500J0D01*
G01*
X-29637500Y20965000D01*
G75*
G02*
X-29490000Y20817500I0J-147500D01*
G01*
G37*
M02*
