G04 #@! TF.GenerationSoftware,KiCad,Pcbnew,(5.1.6)-1*
G04 #@! TF.CreationDate,2020-09-29T23:02:07-04:00*
G04 #@! TF.ProjectId,HP_power_supply_breakout,48505f70-6f77-4657-925f-737570706c79,rev?*
G04 #@! TF.SameCoordinates,Original*
G04 #@! TF.FileFunction,Legend,Bot*
G04 #@! TF.FilePolarity,Positive*
%FSLAX46Y46*%
G04 Gerber Fmt 4.6, Leading zero omitted, Abs format (unit mm)*
G04 Created by KiCad (PCBNEW (5.1.6)-1) date 2020-09-29 23:02:07*
%MOMM*%
%LPD*%
G01*
G04 APERTURE LIST*
%ADD10C,0.152400*%
%ADD11C,0.300000*%
%ADD12C,0.250000*%
G04 APERTURE END LIST*
D10*
X-17761447Y-22496095D02*
X-17761447Y-21683295D01*
X-18071085Y-21683295D01*
X-18148495Y-21722000D01*
X-18187200Y-21760704D01*
X-18225904Y-21838114D01*
X-18225904Y-21954228D01*
X-18187200Y-22031638D01*
X-18148495Y-22070342D01*
X-18071085Y-22109047D01*
X-17761447Y-22109047D01*
X-18922590Y-22496095D02*
X-18922590Y-22070342D01*
X-18883885Y-21992933D01*
X-18806476Y-21954228D01*
X-18651657Y-21954228D01*
X-18574247Y-21992933D01*
X-18922590Y-22457390D02*
X-18845180Y-22496095D01*
X-18651657Y-22496095D01*
X-18574247Y-22457390D01*
X-18535542Y-22379980D01*
X-18535542Y-22302571D01*
X-18574247Y-22225161D01*
X-18651657Y-22186457D01*
X-18845180Y-22186457D01*
X-18922590Y-22147752D01*
X-19270933Y-22457390D02*
X-19348342Y-22496095D01*
X-19503161Y-22496095D01*
X-19580571Y-22457390D01*
X-19619276Y-22379980D01*
X-19619276Y-22341276D01*
X-19580571Y-22263866D01*
X-19503161Y-22225161D01*
X-19387047Y-22225161D01*
X-19309638Y-22186457D01*
X-19270933Y-22109047D01*
X-19270933Y-22070342D01*
X-19309638Y-21992933D01*
X-19387047Y-21954228D01*
X-19503161Y-21954228D01*
X-19580571Y-21992933D01*
X-19928914Y-22457390D02*
X-20006323Y-22496095D01*
X-20161142Y-22496095D01*
X-20238552Y-22457390D01*
X-20277257Y-22379980D01*
X-20277257Y-22341276D01*
X-20238552Y-22263866D01*
X-20161142Y-22225161D01*
X-20045028Y-22225161D01*
X-19967619Y-22186457D01*
X-19928914Y-22109047D01*
X-19928914Y-22070342D01*
X-19967619Y-21992933D01*
X-20045028Y-21954228D01*
X-20161142Y-21954228D01*
X-20238552Y-21992933D01*
X-17780800Y-23054895D02*
X-18245257Y-23054895D01*
X-18013028Y-23867695D02*
X-18013028Y-23054895D01*
X-18516190Y-23867695D02*
X-18516190Y-23054895D01*
X-18864533Y-23867695D02*
X-18864533Y-23441942D01*
X-18825828Y-23364533D01*
X-18748419Y-23325828D01*
X-18632304Y-23325828D01*
X-18554895Y-23364533D01*
X-18516190Y-23403238D01*
X-19251580Y-23867695D02*
X-19251580Y-23325828D01*
X-19251580Y-23480647D02*
X-19290285Y-23403238D01*
X-19328990Y-23364533D01*
X-19406400Y-23325828D01*
X-19483809Y-23325828D01*
X-20103085Y-23325828D02*
X-20103085Y-23867695D01*
X-19754742Y-23325828D02*
X-19754742Y-23751580D01*
X-19793447Y-23828990D01*
X-19870857Y-23867695D01*
X-19986971Y-23867695D01*
X-20064380Y-23828990D01*
X-20103085Y-23790285D01*
X-18380723Y-24465200D02*
X-18303314Y-24426495D01*
X-18187200Y-24426495D01*
X-18071085Y-24465200D01*
X-17993676Y-24542609D01*
X-17954971Y-24620019D01*
X-17916266Y-24774838D01*
X-17916266Y-24890952D01*
X-17954971Y-25045771D01*
X-17993676Y-25123180D01*
X-18071085Y-25200590D01*
X-18187200Y-25239295D01*
X-18264609Y-25239295D01*
X-18380723Y-25200590D01*
X-18419428Y-25161885D01*
X-18419428Y-24890952D01*
X-18264609Y-24890952D01*
X-18767771Y-25239295D02*
X-18767771Y-24426495D01*
X-19232228Y-25239295D01*
X-19232228Y-24426495D01*
X-19619276Y-25239295D02*
X-19619276Y-24426495D01*
X-19812800Y-24426495D01*
X-19928914Y-24465200D01*
X-20006323Y-24542609D01*
X-20045028Y-24620019D01*
X-20083733Y-24774838D01*
X-20083733Y-24890952D01*
X-20045028Y-25045771D01*
X-20006323Y-25123180D01*
X-19928914Y-25200590D01*
X-19812800Y-25239295D01*
X-19619276Y-25239295D01*
X-36005123Y-28308057D02*
X-36624400Y-28308057D01*
X-36314761Y-28617695D02*
X-36314761Y-27998419D01*
X-37437200Y-28617695D02*
X-36972742Y-28617695D01*
X-37204971Y-28617695D02*
X-37204971Y-27804895D01*
X-37127561Y-27921009D01*
X-37050152Y-27998419D01*
X-36972742Y-28037123D01*
X-37746838Y-27882304D02*
X-37785542Y-27843600D01*
X-37862952Y-27804895D01*
X-38056476Y-27804895D01*
X-38133885Y-27843600D01*
X-38172590Y-27882304D01*
X-38211295Y-27959714D01*
X-38211295Y-28037123D01*
X-38172590Y-28153238D01*
X-37708133Y-28617695D01*
X-38211295Y-28617695D01*
X-38366114Y-28695104D02*
X-38985390Y-28695104D01*
X-39333733Y-27804895D02*
X-39488552Y-27804895D01*
X-39565961Y-27843600D01*
X-39643371Y-27921009D01*
X-39682076Y-28075828D01*
X-39682076Y-28346761D01*
X-39643371Y-28501580D01*
X-39565961Y-28578990D01*
X-39488552Y-28617695D01*
X-39333733Y-28617695D01*
X-39256323Y-28578990D01*
X-39178914Y-28501580D01*
X-39140209Y-28346761D01*
X-39140209Y-28075828D01*
X-39178914Y-27921009D01*
X-39256323Y-27843600D01*
X-39333733Y-27804895D01*
X-40030419Y-28617695D02*
X-40030419Y-27804895D01*
X-40494876Y-28617695D01*
X-40494876Y-27804895D01*
X-37024476Y-17558057D02*
X-37643752Y-17558057D01*
X-37334114Y-17867695D02*
X-37334114Y-17248419D01*
X-38456552Y-17867695D02*
X-37992095Y-17867695D01*
X-38224323Y-17867695D02*
X-38224323Y-17054895D01*
X-38146914Y-17171009D01*
X-38069504Y-17248419D01*
X-37992095Y-17287123D01*
X-38766190Y-17132304D02*
X-38804895Y-17093600D01*
X-38882304Y-17054895D01*
X-39075828Y-17054895D01*
X-39153238Y-17093600D01*
X-39191942Y-17132304D01*
X-39230647Y-17209714D01*
X-39230647Y-17287123D01*
X-39191942Y-17403238D01*
X-38727485Y-17867695D01*
X-39230647Y-17867695D01*
X-39462876Y-17054895D02*
X-39733809Y-17867695D01*
X-40004742Y-17054895D01*
X-40236971Y-17828990D02*
X-40353085Y-17867695D01*
X-40546609Y-17867695D01*
X-40624019Y-17828990D01*
X-40662723Y-17790285D01*
X-40701428Y-17712876D01*
X-40701428Y-17635466D01*
X-40662723Y-17558057D01*
X-40624019Y-17519352D01*
X-40546609Y-17480647D01*
X-40391790Y-17441942D01*
X-40314380Y-17403238D01*
X-40275676Y-17364533D01*
X-40236971Y-17287123D01*
X-40236971Y-17209714D01*
X-40275676Y-17132304D01*
X-40314380Y-17093600D01*
X-40391790Y-17054895D01*
X-40585314Y-17054895D01*
X-40701428Y-17093600D01*
X-41320704Y-17441942D02*
X-41436819Y-17480647D01*
X-41475523Y-17519352D01*
X-41514228Y-17596761D01*
X-41514228Y-17712876D01*
X-41475523Y-17790285D01*
X-41436819Y-17828990D01*
X-41359409Y-17867695D01*
X-41049771Y-17867695D01*
X-41049771Y-17054895D01*
X-41320704Y-17054895D01*
X-41398114Y-17093600D01*
X-41436819Y-17132304D01*
X-41475523Y-17209714D01*
X-41475523Y-17287123D01*
X-41436819Y-17364533D01*
X-41398114Y-17403238D01*
X-41320704Y-17441942D01*
X-41049771Y-17441942D01*
X-43738933Y7382304D02*
X-43738933Y8195104D01*
X-44048571Y8195104D01*
X-44125980Y8156400D01*
X-44164685Y8117695D01*
X-44203390Y8040285D01*
X-44203390Y7924171D01*
X-44164685Y7846761D01*
X-44125980Y7808057D01*
X-44048571Y7769352D01*
X-43738933Y7769352D01*
X-44513028Y7421009D02*
X-44629142Y7382304D01*
X-44822666Y7382304D01*
X-44900076Y7421009D01*
X-44938780Y7459714D01*
X-44977485Y7537123D01*
X-44977485Y7614533D01*
X-44938780Y7691942D01*
X-44900076Y7730647D01*
X-44822666Y7769352D01*
X-44667847Y7808057D01*
X-44590438Y7846761D01*
X-44551733Y7885466D01*
X-44513028Y7962876D01*
X-44513028Y8040285D01*
X-44551733Y8117695D01*
X-44590438Y8156400D01*
X-44667847Y8195104D01*
X-44861371Y8195104D01*
X-44977485Y8156400D01*
X-45132304Y7304895D02*
X-45751580Y7304895D01*
X-46099923Y8195104D02*
X-46254742Y8195104D01*
X-46332152Y8156400D01*
X-46409561Y8078990D01*
X-46448266Y7924171D01*
X-46448266Y7653238D01*
X-46409561Y7498419D01*
X-46332152Y7421009D01*
X-46254742Y7382304D01*
X-46099923Y7382304D01*
X-46022514Y7421009D01*
X-45945104Y7498419D01*
X-45906400Y7653238D01*
X-45906400Y7924171D01*
X-45945104Y8078990D01*
X-46022514Y8156400D01*
X-46099923Y8195104D01*
X-46796609Y7382304D02*
X-46796609Y8195104D01*
X-47261066Y7382304D01*
X-47261066Y8195104D01*
D11*
X-20726190Y-3000000D02*
X-20535714Y-2904761D01*
X-20250000Y-2904761D01*
X-19964285Y-3000000D01*
X-19773809Y-3190476D01*
X-19678571Y-3380952D01*
X-19583333Y-3761904D01*
X-19583333Y-4047619D01*
X-19678571Y-4428571D01*
X-19773809Y-4619047D01*
X-19964285Y-4809523D01*
X-20250000Y-4904761D01*
X-20440476Y-4904761D01*
X-20726190Y-4809523D01*
X-20821428Y-4714285D01*
X-20821428Y-4047619D01*
X-20440476Y-4047619D01*
X-21678571Y-4904761D02*
X-21678571Y-2904761D01*
X-22821428Y-4904761D01*
X-22821428Y-2904761D01*
X-23773809Y-4904761D02*
X-23773809Y-2904761D01*
X-24250000Y-2904761D01*
X-24535714Y-3000000D01*
X-24726190Y-3190476D01*
X-24821428Y-3380952D01*
X-24916666Y-3761904D01*
X-24916666Y-4047619D01*
X-24821428Y-4428571D01*
X-24726190Y-4619047D01*
X-24535714Y-4809523D01*
X-24250000Y-4904761D01*
X-23773809Y-4904761D01*
D10*
X-24988933Y-117695D02*
X-24988933Y695104D01*
X-25298571Y695104D01*
X-25375980Y656400D01*
X-25414685Y617695D01*
X-25453390Y540285D01*
X-25453390Y424171D01*
X-25414685Y346761D01*
X-25375980Y308057D01*
X-25298571Y269352D01*
X-24988933Y269352D01*
X-25763028Y-78990D02*
X-25879142Y-117695D01*
X-26072666Y-117695D01*
X-26150076Y-78990D01*
X-26188780Y-40285D01*
X-26227485Y37123D01*
X-26227485Y114533D01*
X-26188780Y191942D01*
X-26150076Y230647D01*
X-26072666Y269352D01*
X-25917847Y308057D01*
X-25840438Y346761D01*
X-25801733Y385466D01*
X-25763028Y462876D01*
X-25763028Y540285D01*
X-25801733Y617695D01*
X-25840438Y656400D01*
X-25917847Y695104D01*
X-26111371Y695104D01*
X-26227485Y656400D01*
X-26382304Y-195104D02*
X-27001580Y-195104D01*
X-27349923Y695104D02*
X-27504742Y695104D01*
X-27582152Y656400D01*
X-27659561Y578990D01*
X-27698266Y424171D01*
X-27698266Y153238D01*
X-27659561Y-1580D01*
X-27582152Y-78990D01*
X-27504742Y-117695D01*
X-27349923Y-117695D01*
X-27272514Y-78990D01*
X-27195104Y-1580D01*
X-27156400Y153238D01*
X-27156400Y424171D01*
X-27195104Y578990D01*
X-27272514Y656400D01*
X-27349923Y695104D01*
X-28046609Y-117695D02*
X-28046609Y695104D01*
X-28511066Y-117695D01*
X-28511066Y695104D01*
D12*
X19059523Y-27321428D02*
X18297619Y-27321428D01*
X18678571Y-27702380D02*
X18678571Y-26940476D01*
X17964285Y-26702380D02*
X17630952Y-27702380D01*
X17297619Y-26702380D01*
X19761904Y-2321428D02*
X19000000Y-2321428D01*
X19380952Y-2702380D02*
X19380952Y-1940476D01*
X18000000Y-2702380D02*
X18571428Y-2702380D01*
X18285714Y-2702380D02*
X18285714Y-1702380D01*
X18380952Y-1845238D01*
X18476190Y-1940476D01*
X18571428Y-1988095D01*
X17619047Y-1797619D02*
X17571428Y-1750000D01*
X17476190Y-1702380D01*
X17238095Y-1702380D01*
X17142857Y-1750000D01*
X17095238Y-1797619D01*
X17047619Y-1892857D01*
X17047619Y-1988095D01*
X17095238Y-2130952D01*
X17666666Y-2702380D01*
X17047619Y-2702380D01*
X16761904Y-1702380D02*
X16428571Y-2702380D01*
X16095238Y-1702380D01*
X20011904Y-14821428D02*
X19250000Y-14821428D01*
X19630952Y-15202380D02*
X19630952Y-14440476D01*
X18250000Y-15202380D02*
X18821428Y-15202380D01*
X18535714Y-15202380D02*
X18535714Y-14202380D01*
X18630952Y-14345238D01*
X18726190Y-14440476D01*
X18821428Y-14488095D01*
X17869047Y-14297619D02*
X17821428Y-14250000D01*
X17726190Y-14202380D01*
X17488095Y-14202380D01*
X17392857Y-14250000D01*
X17345238Y-14297619D01*
X17297619Y-14392857D01*
X17297619Y-14488095D01*
X17345238Y-14630952D01*
X17916666Y-15202380D01*
X17297619Y-15202380D01*
X17011904Y-14202380D02*
X16678571Y-15202380D01*
X16345238Y-14202380D01*
D11*
X44523809Y-9642857D02*
X43000000Y-9642857D01*
X43761904Y-10404761D02*
X43761904Y-8880952D01*
X41000000Y-10404761D02*
X42142857Y-10404761D01*
X41571428Y-10404761D02*
X41571428Y-8404761D01*
X41761904Y-8690476D01*
X41952380Y-8880952D01*
X42142857Y-8976190D01*
X40238095Y-8595238D02*
X40142857Y-8500000D01*
X39952380Y-8404761D01*
X39476190Y-8404761D01*
X39285714Y-8500000D01*
X39190476Y-8595238D01*
X39095238Y-8785714D01*
X39095238Y-8976190D01*
X39190476Y-9261904D01*
X40333333Y-10404761D01*
X39095238Y-10404761D01*
X38523809Y-8404761D02*
X37857142Y-10404761D01*
X37190476Y-8404761D01*
M02*
