G04 #@! TF.GenerationSoftware,KiCad,Pcbnew,(5.1.6)-1*
G04 #@! TF.CreationDate,2020-09-29T23:02:07-04:00*
G04 #@! TF.ProjectId,HP_power_supply_breakout,48505f70-6f77-4657-925f-737570706c79,rev?*
G04 #@! TF.SameCoordinates,Original*
G04 #@! TF.FileFunction,Legend,Top*
G04 #@! TF.FilePolarity,Positive*
%FSLAX46Y46*%
G04 Gerber Fmt 4.6, Leading zero omitted, Abs format (unit mm)*
G04 Created by KiCad (PCBNEW (5.1.6)-1) date 2020-09-29 23:02:07*
%MOMM*%
%LPD*%
G01*
G04 APERTURE LIST*
%ADD10C,0.152400*%
%ADD11C,0.300000*%
%ADD12C,0.250000*%
%ADD13C,0.150000*%
%ADD14C,0.120000*%
G04 APERTURE END LIST*
D10*
X-24241714Y4382304D02*
X-24241714Y5195104D01*
X-23932076Y5195104D01*
X-23854666Y5156400D01*
X-23815961Y5117695D01*
X-23777257Y5040285D01*
X-23777257Y4924171D01*
X-23815961Y4846761D01*
X-23854666Y4808057D01*
X-23932076Y4769352D01*
X-24241714Y4769352D01*
X-23428914Y4382304D02*
X-23428914Y5195104D01*
X-23157980Y4614533D01*
X-22887047Y5195104D01*
X-22887047Y4382304D01*
X-22229066Y4808057D02*
X-22112952Y4769352D01*
X-22074247Y4730647D01*
X-22035542Y4653238D01*
X-22035542Y4537123D01*
X-22074247Y4459714D01*
X-22112952Y4421009D01*
X-22190361Y4382304D01*
X-22500000Y4382304D01*
X-22500000Y5195104D01*
X-22229066Y5195104D01*
X-22151657Y5156400D01*
X-22112952Y5117695D01*
X-22074247Y5040285D01*
X-22074247Y4962876D01*
X-22112952Y4885466D01*
X-22151657Y4846761D01*
X-22229066Y4808057D01*
X-22500000Y4808057D01*
X-21880723Y4304895D02*
X-21261447Y4304895D01*
X-21106628Y4614533D02*
X-20719580Y4614533D01*
X-21184038Y4382304D02*
X-20913104Y5195104D01*
X-20642171Y4382304D01*
X-26119276Y3656400D02*
X-26196685Y3695104D01*
X-26312800Y3695104D01*
X-26428914Y3656400D01*
X-26506323Y3578990D01*
X-26545028Y3501580D01*
X-26583733Y3346761D01*
X-26583733Y3230647D01*
X-26545028Y3075828D01*
X-26506323Y2998419D01*
X-26428914Y2921009D01*
X-26312800Y2882304D01*
X-26235390Y2882304D01*
X-26119276Y2921009D01*
X-26080571Y2959714D01*
X-26080571Y3230647D01*
X-26235390Y3230647D01*
X-25732228Y2882304D02*
X-25732228Y3695104D01*
X-25267771Y2882304D01*
X-25267771Y3695104D01*
X-24880723Y2882304D02*
X-24880723Y3695104D01*
X-24687200Y3695104D01*
X-24571085Y3656400D01*
X-24493676Y3578990D01*
X-24454971Y3501580D01*
X-24416266Y3346761D01*
X-24416266Y3230647D01*
X-24454971Y3075828D01*
X-24493676Y2998419D01*
X-24571085Y2921009D01*
X-24687200Y2882304D01*
X-24880723Y2882304D01*
X-28986971Y4171009D02*
X-28870857Y4132304D01*
X-28677333Y4132304D01*
X-28599923Y4171009D01*
X-28561219Y4209714D01*
X-28522514Y4287123D01*
X-28522514Y4364533D01*
X-28561219Y4441942D01*
X-28599923Y4480647D01*
X-28677333Y4519352D01*
X-28832152Y4558057D01*
X-28909561Y4596761D01*
X-28948266Y4635466D01*
X-28986971Y4712876D01*
X-28986971Y4790285D01*
X-28948266Y4867695D01*
X-28909561Y4906400D01*
X-28832152Y4945104D01*
X-28638628Y4945104D01*
X-28522514Y4906400D01*
X-28174171Y4132304D02*
X-28174171Y4945104D01*
X-27980647Y4945104D01*
X-27864533Y4906400D01*
X-27787123Y4828990D01*
X-27748419Y4751580D01*
X-27709714Y4596761D01*
X-27709714Y4480647D01*
X-27748419Y4325828D01*
X-27787123Y4248419D01*
X-27864533Y4171009D01*
X-27980647Y4132304D01*
X-28174171Y4132304D01*
X-27400076Y4364533D02*
X-27013028Y4364533D01*
X-27477485Y4132304D02*
X-27206552Y4945104D01*
X-26935619Y4132304D01*
X-31467619Y2921009D02*
X-31351504Y2882304D01*
X-31157980Y2882304D01*
X-31080571Y2921009D01*
X-31041866Y2959714D01*
X-31003161Y3037123D01*
X-31003161Y3114533D01*
X-31041866Y3191942D01*
X-31080571Y3230647D01*
X-31157980Y3269352D01*
X-31312800Y3308057D01*
X-31390209Y3346761D01*
X-31428914Y3385466D01*
X-31467619Y3462876D01*
X-31467619Y3540285D01*
X-31428914Y3617695D01*
X-31390209Y3656400D01*
X-31312800Y3695104D01*
X-31119276Y3695104D01*
X-31003161Y3656400D01*
X-30190361Y2959714D02*
X-30229066Y2921009D01*
X-30345180Y2882304D01*
X-30422590Y2882304D01*
X-30538704Y2921009D01*
X-30616114Y2998419D01*
X-30654819Y3075828D01*
X-30693523Y3230647D01*
X-30693523Y3346761D01*
X-30654819Y3501580D01*
X-30616114Y3578990D01*
X-30538704Y3656400D01*
X-30422590Y3695104D01*
X-30345180Y3695104D01*
X-30229066Y3656400D01*
X-30190361Y3617695D01*
X-29454971Y2882304D02*
X-29842019Y2882304D01*
X-29842019Y3695104D01*
X-34991714Y4132304D02*
X-34991714Y4945104D01*
X-34682076Y4945104D01*
X-34604666Y4906400D01*
X-34565961Y4867695D01*
X-34527257Y4790285D01*
X-34527257Y4674171D01*
X-34565961Y4596761D01*
X-34604666Y4558057D01*
X-34682076Y4519352D01*
X-34991714Y4519352D01*
X-34217619Y4171009D02*
X-34101504Y4132304D01*
X-33907980Y4132304D01*
X-33830571Y4171009D01*
X-33791866Y4209714D01*
X-33753161Y4287123D01*
X-33753161Y4364533D01*
X-33791866Y4441942D01*
X-33830571Y4480647D01*
X-33907980Y4519352D01*
X-34062800Y4558057D01*
X-34140209Y4596761D01*
X-34178914Y4635466D01*
X-34217619Y4712876D01*
X-34217619Y4790285D01*
X-34178914Y4867695D01*
X-34140209Y4906400D01*
X-34062800Y4945104D01*
X-33869276Y4945104D01*
X-33753161Y4906400D01*
X-33598342Y4054895D02*
X-32979066Y4054895D01*
X-32630723Y4945104D02*
X-32475904Y4945104D01*
X-32398495Y4906400D01*
X-32321085Y4828990D01*
X-32282380Y4674171D01*
X-32282380Y4403238D01*
X-32321085Y4248419D01*
X-32398495Y4171009D01*
X-32475904Y4132304D01*
X-32630723Y4132304D01*
X-32708133Y4171009D01*
X-32785542Y4248419D01*
X-32824247Y4403238D01*
X-32824247Y4674171D01*
X-32785542Y4828990D01*
X-32708133Y4906400D01*
X-32630723Y4945104D01*
X-31934038Y4132304D02*
X-31934038Y4945104D01*
X-31469580Y4132304D02*
X-31817923Y4596761D01*
X-31469580Y4945104D02*
X-31934038Y4480647D01*
X-37065961Y3132304D02*
X-37065961Y3945104D01*
X-36678914Y3132304D02*
X-36678914Y3945104D01*
X-36407980Y3364533D01*
X-36137047Y3945104D01*
X-36137047Y3132304D01*
X-35595180Y3945104D02*
X-35440361Y3945104D01*
X-35362952Y3906400D01*
X-35285542Y3828990D01*
X-35246838Y3674171D01*
X-35246838Y3403238D01*
X-35285542Y3248419D01*
X-35362952Y3171009D01*
X-35440361Y3132304D01*
X-35595180Y3132304D01*
X-35672590Y3171009D01*
X-35750000Y3248419D01*
X-35788704Y3403238D01*
X-35788704Y3674171D01*
X-35750000Y3828990D01*
X-35672590Y3906400D01*
X-35595180Y3945104D01*
X-34898495Y3132304D02*
X-34898495Y3945104D01*
X-34434038Y3132304D01*
X-34434038Y3945104D01*
X-39546609Y4132304D02*
X-40011066Y4132304D01*
X-39778838Y4132304D02*
X-39778838Y4945104D01*
X-39856247Y4828990D01*
X-39933657Y4751580D01*
X-40011066Y4712876D01*
X-39236971Y4867695D02*
X-39198266Y4906400D01*
X-39120857Y4945104D01*
X-38927333Y4945104D01*
X-38849923Y4906400D01*
X-38811219Y4867695D01*
X-38772514Y4790285D01*
X-38772514Y4712876D01*
X-38811219Y4596761D01*
X-39275676Y4132304D01*
X-38772514Y4132304D01*
X-38540285Y4945104D02*
X-38269352Y4132304D01*
X-37998419Y4945104D01*
X-37766190Y4171009D02*
X-37650076Y4132304D01*
X-37456552Y4132304D01*
X-37379142Y4171009D01*
X-37340438Y4209714D01*
X-37301733Y4287123D01*
X-37301733Y4364533D01*
X-37340438Y4441942D01*
X-37379142Y4480647D01*
X-37456552Y4519352D01*
X-37611371Y4558057D01*
X-37688780Y4596761D01*
X-37727485Y4635466D01*
X-37766190Y4712876D01*
X-37766190Y4790285D01*
X-37727485Y4867695D01*
X-37688780Y4906400D01*
X-37611371Y4945104D01*
X-37417847Y4945104D01*
X-37301733Y4906400D01*
X-36682457Y4558057D02*
X-36566342Y4519352D01*
X-36527638Y4480647D01*
X-36488933Y4403238D01*
X-36488933Y4287123D01*
X-36527638Y4209714D01*
X-36566342Y4171009D01*
X-36643752Y4132304D01*
X-36953390Y4132304D01*
X-36953390Y4945104D01*
X-36682457Y4945104D01*
X-36605047Y4906400D01*
X-36566342Y4867695D01*
X-36527638Y4790285D01*
X-36527638Y4712876D01*
X-36566342Y4635466D01*
X-36605047Y4596761D01*
X-36682457Y4558057D01*
X-36953390Y4558057D01*
D11*
X9202380Y27845238D02*
X9869047Y25845238D01*
X10535714Y27845238D01*
X12250000Y25845238D02*
X11107142Y25845238D01*
X11678571Y25845238D02*
X11678571Y27845238D01*
X11488095Y27559523D01*
X11297619Y27369047D01*
X11107142Y27273809D01*
X13107142Y26035714D02*
X13202380Y25940476D01*
X13107142Y25845238D01*
X13011904Y25940476D01*
X13107142Y26035714D01*
X13107142Y25845238D01*
X14440476Y27845238D02*
X14630952Y27845238D01*
X14821428Y27750000D01*
X14916666Y27654761D01*
X15011904Y27464285D01*
X15107142Y27083333D01*
X15107142Y26607142D01*
X15011904Y26226190D01*
X14916666Y26035714D01*
X14821428Y25940476D01*
X14630952Y25845238D01*
X14440476Y25845238D01*
X14250000Y25940476D01*
X14154761Y26035714D01*
X14059523Y26226190D01*
X13964285Y26607142D01*
X13964285Y27083333D01*
X14059523Y27464285D01*
X14154761Y27654761D01*
X14250000Y27750000D01*
X14440476Y27845238D01*
X37476190Y-9642857D02*
X39000000Y-9642857D01*
X38238095Y-10404761D02*
X38238095Y-8880952D01*
X41000000Y-10404761D02*
X39857142Y-10404761D01*
X40428571Y-10404761D02*
X40428571Y-8404761D01*
X40238095Y-8690476D01*
X40047619Y-8880952D01*
X39857142Y-8976190D01*
X41761904Y-8595238D02*
X41857142Y-8500000D01*
X42047619Y-8404761D01*
X42523809Y-8404761D01*
X42714285Y-8500000D01*
X42809523Y-8595238D01*
X42904761Y-8785714D01*
X42904761Y-8976190D01*
X42809523Y-9261904D01*
X41666666Y-10404761D01*
X42904761Y-10404761D01*
X43476190Y-8404761D02*
X44142857Y-10404761D01*
X44809523Y-8404761D01*
D12*
X17440476Y-27321428D02*
X18202380Y-27321428D01*
X17821428Y-27702380D02*
X17821428Y-26940476D01*
X18535714Y-26702380D02*
X18869047Y-27702380D01*
X19202380Y-26702380D01*
X16488095Y-14821428D02*
X17250000Y-14821428D01*
X16869047Y-15202380D02*
X16869047Y-14440476D01*
X18250000Y-15202380D02*
X17678571Y-15202380D01*
X17964285Y-15202380D02*
X17964285Y-14202380D01*
X17869047Y-14345238D01*
X17773809Y-14440476D01*
X17678571Y-14488095D01*
X18630952Y-14297619D02*
X18678571Y-14250000D01*
X18773809Y-14202380D01*
X19011904Y-14202380D01*
X19107142Y-14250000D01*
X19154761Y-14297619D01*
X19202380Y-14392857D01*
X19202380Y-14488095D01*
X19154761Y-14630952D01*
X18583333Y-15202380D01*
X19202380Y-15202380D01*
X19488095Y-14202380D02*
X19821428Y-15202380D01*
X20154761Y-14202380D01*
X16238095Y-2321428D02*
X17000000Y-2321428D01*
X16619047Y-2702380D02*
X16619047Y-1940476D01*
X18000000Y-2702380D02*
X17428571Y-2702380D01*
X17714285Y-2702380D02*
X17714285Y-1702380D01*
X17619047Y-1845238D01*
X17523809Y-1940476D01*
X17428571Y-1988095D01*
X18380952Y-1797619D02*
X18428571Y-1750000D01*
X18523809Y-1702380D01*
X18761904Y-1702380D01*
X18857142Y-1750000D01*
X18904761Y-1797619D01*
X18952380Y-1892857D01*
X18952380Y-1988095D01*
X18904761Y-2130952D01*
X18333333Y-2702380D01*
X18952380Y-2702380D01*
X19238095Y-1702380D02*
X19571428Y-2702380D01*
X19904761Y-1702380D01*
D10*
X-28511066Y-117695D02*
X-28511066Y695104D01*
X-28201428Y695104D01*
X-28124019Y656400D01*
X-28085314Y617695D01*
X-28046609Y540285D01*
X-28046609Y424171D01*
X-28085314Y346761D01*
X-28124019Y308057D01*
X-28201428Y269352D01*
X-28511066Y269352D01*
X-27736971Y-78990D02*
X-27620857Y-117695D01*
X-27427333Y-117695D01*
X-27349923Y-78990D01*
X-27311219Y-40285D01*
X-27272514Y37123D01*
X-27272514Y114533D01*
X-27311219Y191942D01*
X-27349923Y230647D01*
X-27427333Y269352D01*
X-27582152Y308057D01*
X-27659561Y346761D01*
X-27698266Y385466D01*
X-27736971Y462876D01*
X-27736971Y540285D01*
X-27698266Y617695D01*
X-27659561Y656400D01*
X-27582152Y695104D01*
X-27388628Y695104D01*
X-27272514Y656400D01*
X-27117695Y-195104D02*
X-26498419Y-195104D01*
X-26150076Y695104D02*
X-25995257Y695104D01*
X-25917847Y656400D01*
X-25840438Y578990D01*
X-25801733Y424171D01*
X-25801733Y153238D01*
X-25840438Y-1580D01*
X-25917847Y-78990D01*
X-25995257Y-117695D01*
X-26150076Y-117695D01*
X-26227485Y-78990D01*
X-26304895Y-1580D01*
X-26343600Y153238D01*
X-26343600Y424171D01*
X-26304895Y578990D01*
X-26227485Y656400D01*
X-26150076Y695104D01*
X-25453390Y-117695D02*
X-25453390Y695104D01*
X-24988933Y-117695D01*
X-24988933Y695104D01*
X-38994876Y-28308057D02*
X-38375600Y-28308057D01*
X-38685238Y-28617695D02*
X-38685238Y-27998419D01*
X-37562800Y-28617695D02*
X-38027257Y-28617695D01*
X-37795028Y-28617695D02*
X-37795028Y-27804895D01*
X-37872438Y-27921009D01*
X-37949847Y-27998419D01*
X-38027257Y-28037123D01*
X-37253161Y-27882304D02*
X-37214457Y-27843600D01*
X-37137047Y-27804895D01*
X-36943523Y-27804895D01*
X-36866114Y-27843600D01*
X-36827409Y-27882304D01*
X-36788704Y-27959714D01*
X-36788704Y-28037123D01*
X-36827409Y-28153238D01*
X-37291866Y-28617695D01*
X-36788704Y-28617695D01*
X-36633885Y-28695104D02*
X-36014609Y-28695104D01*
X-35666266Y-27804895D02*
X-35511447Y-27804895D01*
X-35434038Y-27843600D01*
X-35356628Y-27921009D01*
X-35317923Y-28075828D01*
X-35317923Y-28346761D01*
X-35356628Y-28501580D01*
X-35434038Y-28578990D01*
X-35511447Y-28617695D01*
X-35666266Y-28617695D01*
X-35743676Y-28578990D01*
X-35821085Y-28501580D01*
X-35859790Y-28346761D01*
X-35859790Y-28075828D01*
X-35821085Y-27921009D01*
X-35743676Y-27843600D01*
X-35666266Y-27804895D01*
X-34969580Y-28617695D02*
X-34969580Y-27804895D01*
X-34505123Y-28617695D01*
X-34505123Y-27804895D01*
X-37975523Y-17558057D02*
X-37356247Y-17558057D01*
X-37665885Y-17867695D02*
X-37665885Y-17248419D01*
X-36543447Y-17867695D02*
X-37007904Y-17867695D01*
X-36775676Y-17867695D02*
X-36775676Y-17054895D01*
X-36853085Y-17171009D01*
X-36930495Y-17248419D01*
X-37007904Y-17287123D01*
X-36233809Y-17132304D02*
X-36195104Y-17093600D01*
X-36117695Y-17054895D01*
X-35924171Y-17054895D01*
X-35846761Y-17093600D01*
X-35808057Y-17132304D01*
X-35769352Y-17209714D01*
X-35769352Y-17287123D01*
X-35808057Y-17403238D01*
X-36272514Y-17867695D01*
X-35769352Y-17867695D01*
X-35537123Y-17054895D02*
X-35266190Y-17867695D01*
X-34995257Y-17054895D01*
X-34763028Y-17828990D02*
X-34646914Y-17867695D01*
X-34453390Y-17867695D01*
X-34375980Y-17828990D01*
X-34337276Y-17790285D01*
X-34298571Y-17712876D01*
X-34298571Y-17635466D01*
X-34337276Y-17558057D01*
X-34375980Y-17519352D01*
X-34453390Y-17480647D01*
X-34608209Y-17441942D01*
X-34685619Y-17403238D01*
X-34724323Y-17364533D01*
X-34763028Y-17287123D01*
X-34763028Y-17209714D01*
X-34724323Y-17132304D01*
X-34685619Y-17093600D01*
X-34608209Y-17054895D01*
X-34414685Y-17054895D01*
X-34298571Y-17093600D01*
X-33679295Y-17441942D02*
X-33563180Y-17480647D01*
X-33524476Y-17519352D01*
X-33485771Y-17596761D01*
X-33485771Y-17712876D01*
X-33524476Y-17790285D01*
X-33563180Y-17828990D01*
X-33640590Y-17867695D01*
X-33950228Y-17867695D01*
X-33950228Y-17054895D01*
X-33679295Y-17054895D01*
X-33601885Y-17093600D01*
X-33563180Y-17132304D01*
X-33524476Y-17209714D01*
X-33524476Y-17287123D01*
X-33563180Y-17364533D01*
X-33601885Y-17403238D01*
X-33679295Y-17441942D01*
X-33950228Y-17441942D01*
X-47261066Y7382304D02*
X-47261066Y8195104D01*
X-46951428Y8195104D01*
X-46874019Y8156400D01*
X-46835314Y8117695D01*
X-46796609Y8040285D01*
X-46796609Y7924171D01*
X-46835314Y7846761D01*
X-46874019Y7808057D01*
X-46951428Y7769352D01*
X-47261066Y7769352D01*
X-46486971Y7421009D02*
X-46370857Y7382304D01*
X-46177333Y7382304D01*
X-46099923Y7421009D01*
X-46061219Y7459714D01*
X-46022514Y7537123D01*
X-46022514Y7614533D01*
X-46061219Y7691942D01*
X-46099923Y7730647D01*
X-46177333Y7769352D01*
X-46332152Y7808057D01*
X-46409561Y7846761D01*
X-46448266Y7885466D01*
X-46486971Y7962876D01*
X-46486971Y8040285D01*
X-46448266Y8117695D01*
X-46409561Y8156400D01*
X-46332152Y8195104D01*
X-46138628Y8195104D01*
X-46022514Y8156400D01*
X-45867695Y7304895D02*
X-45248419Y7304895D01*
X-44900076Y8195104D02*
X-44745257Y8195104D01*
X-44667847Y8156400D01*
X-44590438Y8078990D01*
X-44551733Y7924171D01*
X-44551733Y7653238D01*
X-44590438Y7498419D01*
X-44667847Y7421009D01*
X-44745257Y7382304D01*
X-44900076Y7382304D01*
X-44977485Y7421009D01*
X-45054895Y7498419D01*
X-45093600Y7653238D01*
X-45093600Y7924171D01*
X-45054895Y8078990D01*
X-44977485Y8156400D01*
X-44900076Y8195104D01*
X-44203390Y7382304D02*
X-44203390Y8195104D01*
X-43738933Y7382304D01*
X-43738933Y8195104D01*
X-20238552Y-22496095D02*
X-20238552Y-21683295D01*
X-19928914Y-21683295D01*
X-19851504Y-21722000D01*
X-19812800Y-21760704D01*
X-19774095Y-21838114D01*
X-19774095Y-21954228D01*
X-19812800Y-22031638D01*
X-19851504Y-22070342D01*
X-19928914Y-22109047D01*
X-20238552Y-22109047D01*
X-19077409Y-22496095D02*
X-19077409Y-22070342D01*
X-19116114Y-21992933D01*
X-19193523Y-21954228D01*
X-19348342Y-21954228D01*
X-19425752Y-21992933D01*
X-19077409Y-22457390D02*
X-19154819Y-22496095D01*
X-19348342Y-22496095D01*
X-19425752Y-22457390D01*
X-19464457Y-22379980D01*
X-19464457Y-22302571D01*
X-19425752Y-22225161D01*
X-19348342Y-22186457D01*
X-19154819Y-22186457D01*
X-19077409Y-22147752D01*
X-18729066Y-22457390D02*
X-18651657Y-22496095D01*
X-18496838Y-22496095D01*
X-18419428Y-22457390D01*
X-18380723Y-22379980D01*
X-18380723Y-22341276D01*
X-18419428Y-22263866D01*
X-18496838Y-22225161D01*
X-18612952Y-22225161D01*
X-18690361Y-22186457D01*
X-18729066Y-22109047D01*
X-18729066Y-22070342D01*
X-18690361Y-21992933D01*
X-18612952Y-21954228D01*
X-18496838Y-21954228D01*
X-18419428Y-21992933D01*
X-18071085Y-22457390D02*
X-17993676Y-22496095D01*
X-17838857Y-22496095D01*
X-17761447Y-22457390D01*
X-17722742Y-22379980D01*
X-17722742Y-22341276D01*
X-17761447Y-22263866D01*
X-17838857Y-22225161D01*
X-17954971Y-22225161D01*
X-18032380Y-22186457D01*
X-18071085Y-22109047D01*
X-18071085Y-22070342D01*
X-18032380Y-21992933D01*
X-17954971Y-21954228D01*
X-17838857Y-21954228D01*
X-17761447Y-21992933D01*
X-20219200Y-23054895D02*
X-19754742Y-23054895D01*
X-19986971Y-23867695D02*
X-19986971Y-23054895D01*
X-19483809Y-23867695D02*
X-19483809Y-23054895D01*
X-19135466Y-23867695D02*
X-19135466Y-23441942D01*
X-19174171Y-23364533D01*
X-19251580Y-23325828D01*
X-19367695Y-23325828D01*
X-19445104Y-23364533D01*
X-19483809Y-23403238D01*
X-18748419Y-23867695D02*
X-18748419Y-23325828D01*
X-18748419Y-23480647D02*
X-18709714Y-23403238D01*
X-18671009Y-23364533D01*
X-18593600Y-23325828D01*
X-18516190Y-23325828D01*
X-17896914Y-23325828D02*
X-17896914Y-23867695D01*
X-18245257Y-23325828D02*
X-18245257Y-23751580D01*
X-18206552Y-23828990D01*
X-18129142Y-23867695D01*
X-18013028Y-23867695D01*
X-17935619Y-23828990D01*
X-17896914Y-23790285D01*
X-19619276Y-24465200D02*
X-19696685Y-24426495D01*
X-19812800Y-24426495D01*
X-19928914Y-24465200D01*
X-20006323Y-24542609D01*
X-20045028Y-24620019D01*
X-20083733Y-24774838D01*
X-20083733Y-24890952D01*
X-20045028Y-25045771D01*
X-20006323Y-25123180D01*
X-19928914Y-25200590D01*
X-19812800Y-25239295D01*
X-19735390Y-25239295D01*
X-19619276Y-25200590D01*
X-19580571Y-25161885D01*
X-19580571Y-24890952D01*
X-19735390Y-24890952D01*
X-19232228Y-25239295D02*
X-19232228Y-24426495D01*
X-18767771Y-25239295D01*
X-18767771Y-24426495D01*
X-18380723Y-25239295D02*
X-18380723Y-24426495D01*
X-18187200Y-24426495D01*
X-18071085Y-24465200D01*
X-17993676Y-24542609D01*
X-17954971Y-24620019D01*
X-17916266Y-24774838D01*
X-17916266Y-24890952D01*
X-17954971Y-25045771D01*
X-17993676Y-25123180D01*
X-18071085Y-25200590D01*
X-18187200Y-25239295D01*
X-18380723Y-25239295D01*
D11*
X-23773809Y-3000000D02*
X-23964285Y-2904761D01*
X-24250000Y-2904761D01*
X-24535714Y-3000000D01*
X-24726190Y-3190476D01*
X-24821428Y-3380952D01*
X-24916666Y-3761904D01*
X-24916666Y-4047619D01*
X-24821428Y-4428571D01*
X-24726190Y-4619047D01*
X-24535714Y-4809523D01*
X-24250000Y-4904761D01*
X-24059523Y-4904761D01*
X-23773809Y-4809523D01*
X-23678571Y-4714285D01*
X-23678571Y-4047619D01*
X-24059523Y-4047619D01*
X-22821428Y-4904761D02*
X-22821428Y-2904761D01*
X-21678571Y-4904761D01*
X-21678571Y-2904761D01*
X-20726190Y-4904761D02*
X-20726190Y-2904761D01*
X-20250000Y-2904761D01*
X-19964285Y-3000000D01*
X-19773809Y-3190476D01*
X-19678571Y-3380952D01*
X-19583333Y-3761904D01*
X-19583333Y-4047619D01*
X-19678571Y-4428571D01*
X-19773809Y-4619047D01*
X-19964285Y-4809523D01*
X-20250000Y-4904761D01*
X-20726190Y-4904761D01*
D13*
X-52500000Y2750000D02*
X-38500000Y2750000D01*
X-52500000Y-16250000D02*
X-38500000Y-16250000D01*
X-38500000Y2750000D02*
X-38500000Y1450000D01*
X-38500000Y-8050000D02*
X-38500000Y-16250000D01*
X-38500000Y-850000D02*
X-38500000Y-5450000D01*
X-43200000Y17655000D02*
X-43200000Y9360000D01*
X43620000Y17655000D02*
X43620000Y9360000D01*
D12*
X39705000Y8890000D02*
G75*
G03*
X39705000Y8890000I-125000J0D01*
G01*
D13*
X43620000Y32055000D02*
X43620000Y17655000D01*
X43620000Y17655000D02*
X-43200000Y17655000D01*
X-43200000Y32055000D02*
X-43200000Y17655000D01*
X43620000Y9360000D02*
X-43200000Y9360000D01*
D14*
X-39580000Y5420000D02*
X-39580000Y6750000D01*
X-38250000Y5420000D02*
X-39580000Y5420000D01*
X-36980000Y5420000D02*
X-36980000Y8080000D01*
X-36980000Y8080000D02*
X-21680000Y8080000D01*
X-36980000Y5420000D02*
X-21680000Y5420000D01*
X-21680000Y5420000D02*
X-21680000Y8080000D01*
X250000Y-6550000D02*
X3100000Y-9150000D01*
X3100000Y-850000D02*
X250000Y-3400000D01*
X15950000Y-9150000D02*
X15950000Y-850000D01*
X3100000Y-9150000D02*
X15950000Y-9150000D01*
X250000Y-3400000D02*
X250000Y-6550000D01*
X15950000Y-850000D02*
X3100000Y-850000D01*
X250000Y-16550000D02*
X3100000Y-19150000D01*
X3100000Y-10850000D02*
X250000Y-13400000D01*
X15950000Y-19150000D02*
X15950000Y-10850000D01*
X3100000Y-19150000D02*
X15950000Y-19150000D01*
X250000Y-13400000D02*
X250000Y-16550000D01*
X15950000Y-10850000D02*
X3100000Y-10850000D01*
X250000Y-26550000D02*
X3100000Y-29150000D01*
X3100000Y-20850000D02*
X250000Y-23400000D01*
X15950000Y-29150000D02*
X15950000Y-20850000D01*
X3100000Y-29150000D02*
X15950000Y-29150000D01*
X250000Y-23400000D02*
X250000Y-26550000D01*
X15950000Y-20850000D02*
X3100000Y-20850000D01*
X-31830000Y-3830000D02*
X-29170000Y-3830000D01*
X-31830000Y-1230000D02*
X-31830000Y-3830000D01*
X-29170000Y-1230000D02*
X-29170000Y-3830000D01*
X-31830000Y-1230000D02*
X-29170000Y-1230000D01*
X-31830000Y40000D02*
X-31830000Y1370000D01*
X-31830000Y1370000D02*
X-30500000Y1370000D01*
X-40830000Y-24264000D02*
X-40830000Y-24420000D01*
X-40830000Y-26580000D02*
X-40830000Y-26736000D01*
X-38228870Y-26579837D02*
G75*
G02*
X-40310961Y-26580000I-1041130J1079837D01*
G01*
X-38228870Y-24420163D02*
G75*
G03*
X-40310961Y-24420000I-1041130J-1079837D01*
G01*
X-37597665Y-26578608D02*
G75*
G02*
X-40830000Y-26735516I-1672335J1078608D01*
G01*
X-37597665Y-24421392D02*
G75*
G03*
X-40830000Y-24264484I-1672335J-1078608D01*
G01*
X-40830000Y-18514000D02*
X-40830000Y-18670000D01*
X-40830000Y-20830000D02*
X-40830000Y-20986000D01*
X-38228870Y-20829837D02*
G75*
G02*
X-40310961Y-20830000I-1041130J1079837D01*
G01*
X-38228870Y-18670163D02*
G75*
G03*
X-40310961Y-18670000I-1041130J-1079837D01*
G01*
X-37597665Y-20828608D02*
G75*
G02*
X-40830000Y-20985516I-1672335J1078608D01*
G01*
X-37597665Y-18671392D02*
G75*
G03*
X-40830000Y-18514484I-1672335J-1078608D01*
G01*
X-46695000Y4170000D02*
X-46695000Y5500000D01*
X-45365000Y4170000D02*
X-46695000Y4170000D01*
X-44095000Y4170000D02*
X-44095000Y6830000D01*
X-44095000Y6830000D02*
X-41495000Y6830000D01*
X-44095000Y4170000D02*
X-41495000Y4170000D01*
X-41495000Y4170000D02*
X-41495000Y6830000D01*
D13*
X-36345238Y-11511904D02*
X-36297619Y-11369047D01*
X-36297619Y-11130952D01*
X-36345238Y-11035714D01*
X-36392857Y-10988095D01*
X-36488095Y-10940476D01*
X-36583333Y-10940476D01*
X-36678571Y-10988095D01*
X-36726190Y-11035714D01*
X-36773809Y-11130952D01*
X-36821428Y-11321428D01*
X-36869047Y-11416666D01*
X-36916666Y-11464285D01*
X-37011904Y-11511904D01*
X-37107142Y-11511904D01*
X-37202380Y-11464285D01*
X-37250000Y-11416666D01*
X-37297619Y-11321428D01*
X-37297619Y-11083333D01*
X-37250000Y-10940476D01*
X-36297619Y-9988095D02*
X-36297619Y-10559523D01*
X-36297619Y-10273809D02*
X-37297619Y-10273809D01*
X-37154761Y-10369047D01*
X-37059523Y-10464285D01*
X-37011904Y-10559523D01*
X42977023Y9107619D02*
X42977023Y8393333D01*
X42929404Y8250476D01*
X42834166Y8155238D01*
X42691309Y8107619D01*
X42596071Y8107619D01*
X43977023Y8107619D02*
X43405595Y8107619D01*
X43691309Y8107619D02*
X43691309Y9107619D01*
X43596071Y8964761D01*
X43500833Y8869523D01*
X43405595Y8821904D01*
X-7319285Y18605476D02*
X-8045000Y18605476D01*
X-7682142Y18605476D02*
X-7682142Y19875476D01*
X-7803095Y19694047D01*
X-7924047Y19573095D01*
X-8045000Y19512619D01*
X-6533095Y19875476D02*
X-6412142Y19875476D01*
X-6291190Y19815000D01*
X-6230714Y19754523D01*
X-6170238Y19633571D01*
X-6109761Y19391666D01*
X-6109761Y19089285D01*
X-6170238Y18847380D01*
X-6230714Y18726428D01*
X-6291190Y18665952D01*
X-6412142Y18605476D01*
X-6533095Y18605476D01*
X-6654047Y18665952D01*
X-6714523Y18726428D01*
X-6775000Y18847380D01*
X-6835476Y19089285D01*
X-6835476Y19391666D01*
X-6775000Y19633571D01*
X-6714523Y19754523D01*
X-6654047Y19815000D01*
X-6533095Y19875476D01*
X-5323571Y19875476D02*
X-5202619Y19875476D01*
X-5081666Y19815000D01*
X-5021190Y19754523D01*
X-4960714Y19633571D01*
X-4900238Y19391666D01*
X-4900238Y19089285D01*
X-4960714Y18847380D01*
X-5021190Y18726428D01*
X-5081666Y18665952D01*
X-5202619Y18605476D01*
X-5323571Y18605476D01*
X-5444523Y18665952D01*
X-5505000Y18726428D01*
X-5565476Y18847380D01*
X-5625952Y19089285D01*
X-5625952Y19391666D01*
X-5565476Y19633571D01*
X-5505000Y19754523D01*
X-5444523Y19815000D01*
X-5323571Y19875476D01*
X-3751190Y19875476D02*
X-4355952Y19875476D01*
X-4416428Y19270714D01*
X-4355952Y19331190D01*
X-4235000Y19391666D01*
X-3932619Y19391666D01*
X-3811666Y19331190D01*
X-3751190Y19270714D01*
X-3690714Y19149761D01*
X-3690714Y18847380D01*
X-3751190Y18726428D01*
X-3811666Y18665952D01*
X-3932619Y18605476D01*
X-4235000Y18605476D01*
X-4355952Y18665952D01*
X-4416428Y18726428D01*
X-3267380Y19875476D02*
X-2481190Y19875476D01*
X-2904523Y19391666D01*
X-2723095Y19391666D01*
X-2602142Y19331190D01*
X-2541666Y19270714D01*
X-2481190Y19149761D01*
X-2481190Y18847380D01*
X-2541666Y18726428D01*
X-2602142Y18665952D01*
X-2723095Y18605476D01*
X-3085952Y18605476D01*
X-3206904Y18665952D01*
X-3267380Y18726428D01*
X-2057857Y19875476D02*
X-1271666Y19875476D01*
X-1695000Y19391666D01*
X-1513571Y19391666D01*
X-1392619Y19331190D01*
X-1332142Y19270714D01*
X-1271666Y19149761D01*
X-1271666Y18847380D01*
X-1332142Y18726428D01*
X-1392619Y18665952D01*
X-1513571Y18605476D01*
X-1876428Y18605476D01*
X-1997380Y18665952D01*
X-2057857Y18726428D01*
X-183095Y19875476D02*
X-425000Y19875476D01*
X-545952Y19815000D01*
X-606428Y19754523D01*
X-727380Y19573095D01*
X-787857Y19331190D01*
X-787857Y18847380D01*
X-727380Y18726428D01*
X-666904Y18665952D01*
X-545952Y18605476D01*
X-304047Y18605476D01*
X-183095Y18665952D01*
X-122619Y18726428D01*
X-62142Y18847380D01*
X-62142Y19149761D01*
X-122619Y19270714D01*
X-183095Y19331190D01*
X-304047Y19391666D01*
X-545952Y19391666D01*
X-666904Y19331190D01*
X-727380Y19270714D01*
X-787857Y19149761D01*
X361190Y19875476D02*
X1147380Y19875476D01*
X724047Y19391666D01*
X905476Y19391666D01*
X1026428Y19331190D01*
X1086904Y19270714D01*
X1147380Y19149761D01*
X1147380Y18847380D01*
X1086904Y18726428D01*
X1026428Y18665952D01*
X905476Y18605476D01*
X542619Y18605476D01*
X421666Y18665952D01*
X361190Y18726428D01*
X1691666Y19089285D02*
X2659285Y19089285D01*
X3203571Y19754523D02*
X3264047Y19815000D01*
X3385000Y19875476D01*
X3687380Y19875476D01*
X3808333Y19815000D01*
X3868809Y19754523D01*
X3929285Y19633571D01*
X3929285Y19512619D01*
X3868809Y19331190D01*
X3143095Y18605476D01*
X3929285Y18605476D01*
X4715476Y19875476D02*
X4836428Y19875476D01*
X4957380Y19815000D01*
X5017857Y19754523D01*
X5078333Y19633571D01*
X5138809Y19391666D01*
X5138809Y19089285D01*
X5078333Y18847380D01*
X5017857Y18726428D01*
X4957380Y18665952D01*
X4836428Y18605476D01*
X4715476Y18605476D01*
X4594523Y18665952D01*
X4534047Y18726428D01*
X4473571Y18847380D01*
X4413095Y19089285D01*
X4413095Y19391666D01*
X4473571Y19633571D01*
X4534047Y19754523D01*
X4594523Y19815000D01*
X4715476Y19875476D01*
X5925000Y19875476D02*
X6045952Y19875476D01*
X6166904Y19815000D01*
X6227380Y19754523D01*
X6287857Y19633571D01*
X6348333Y19391666D01*
X6348333Y19089285D01*
X6287857Y18847380D01*
X6227380Y18726428D01*
X6166904Y18665952D01*
X6045952Y18605476D01*
X5925000Y18605476D01*
X5804047Y18665952D01*
X5743571Y18726428D01*
X5683095Y18847380D01*
X5622619Y19089285D01*
X5622619Y19391666D01*
X5683095Y19633571D01*
X5743571Y19754523D01*
X5804047Y19815000D01*
X5925000Y19875476D01*
X7497380Y18605476D02*
X6892619Y18605476D01*
X6892619Y19875476D01*
X8344047Y19270714D02*
X7920714Y19270714D01*
X7920714Y18605476D02*
X7920714Y19875476D01*
X8525476Y19875476D01*
X-20833333Y7297619D02*
X-20833333Y6583333D01*
X-20880952Y6440476D01*
X-20976190Y6345238D01*
X-21119047Y6297619D01*
X-21214285Y6297619D01*
X-20452380Y7297619D02*
X-19785714Y7297619D01*
X-20214285Y6297619D01*
X-83333Y-202380D02*
X-83333Y-916666D01*
X-130952Y-1059523D01*
X-226190Y-1154761D01*
X-369047Y-1202380D01*
X-464285Y-1202380D01*
X821428Y-202380D02*
X630952Y-202380D01*
X535714Y-250000D01*
X488095Y-297619D01*
X392857Y-440476D01*
X345238Y-630952D01*
X345238Y-1011904D01*
X392857Y-1107142D01*
X440476Y-1154761D01*
X535714Y-1202380D01*
X726190Y-1202380D01*
X821428Y-1154761D01*
X869047Y-1107142D01*
X916666Y-1011904D01*
X916666Y-773809D01*
X869047Y-678571D01*
X821428Y-630952D01*
X726190Y-583333D01*
X535714Y-583333D01*
X440476Y-630952D01*
X392857Y-678571D01*
X345238Y-773809D01*
X-333333Y-10452380D02*
X-333333Y-11166666D01*
X-380952Y-11309523D01*
X-476190Y-11404761D01*
X-619047Y-11452380D01*
X-714285Y-11452380D01*
X619047Y-10452380D02*
X142857Y-10452380D01*
X95238Y-10928571D01*
X142857Y-10880952D01*
X238095Y-10833333D01*
X476190Y-10833333D01*
X571428Y-10880952D01*
X619047Y-10928571D01*
X666666Y-11023809D01*
X666666Y-11261904D01*
X619047Y-11357142D01*
X571428Y-11404761D01*
X476190Y-11452380D01*
X238095Y-11452380D01*
X142857Y-11404761D01*
X95238Y-11357142D01*
X-583333Y-21202380D02*
X-583333Y-21916666D01*
X-630952Y-22059523D01*
X-726190Y-22154761D01*
X-869047Y-22202380D01*
X-964285Y-22202380D01*
X321428Y-21535714D02*
X321428Y-22202380D01*
X83333Y-21154761D02*
X-154761Y-21869047D01*
X464285Y-21869047D01*
X-37666666Y-23202380D02*
X-38000000Y-22726190D01*
X-38238095Y-23202380D02*
X-38238095Y-22202380D01*
X-37857142Y-22202380D01*
X-37761904Y-22250000D01*
X-37714285Y-22297619D01*
X-37666666Y-22392857D01*
X-37666666Y-22535714D01*
X-37714285Y-22630952D01*
X-37761904Y-22678571D01*
X-37857142Y-22726190D01*
X-38238095Y-22726190D01*
X-37333333Y-22202380D02*
X-36714285Y-22202380D01*
X-37047619Y-22583333D01*
X-36904761Y-22583333D01*
X-36809523Y-22630952D01*
X-36761904Y-22678571D01*
X-36714285Y-22773809D01*
X-36714285Y-23011904D01*
X-36761904Y-23107142D01*
X-36809523Y-23154761D01*
X-36904761Y-23202380D01*
X-37190476Y-23202380D01*
X-37285714Y-23154761D01*
X-37333333Y-23107142D01*
X-46166666Y-19452380D02*
X-46500000Y-18976190D01*
X-46738095Y-19452380D02*
X-46738095Y-18452380D01*
X-46357142Y-18452380D01*
X-46261904Y-18500000D01*
X-46214285Y-18547619D01*
X-46166666Y-18642857D01*
X-46166666Y-18785714D01*
X-46214285Y-18880952D01*
X-46261904Y-18928571D01*
X-46357142Y-18976190D01*
X-46738095Y-18976190D01*
X-45785714Y-18547619D02*
X-45738095Y-18500000D01*
X-45642857Y-18452380D01*
X-45404761Y-18452380D01*
X-45309523Y-18500000D01*
X-45261904Y-18547619D01*
X-45214285Y-18642857D01*
X-45214285Y-18738095D01*
X-45261904Y-18880952D01*
X-45833333Y-19452380D01*
X-45214285Y-19452380D01*
X-30333333Y-4452380D02*
X-30333333Y-5166666D01*
X-30380952Y-5309523D01*
X-30476190Y-5404761D01*
X-30619047Y-5452380D01*
X-30714285Y-5452380D01*
X-29952380Y-4452380D02*
X-29333333Y-4452380D01*
X-29666666Y-4833333D01*
X-29523809Y-4833333D01*
X-29428571Y-4880952D01*
X-29380952Y-4928571D01*
X-29333333Y-5023809D01*
X-29333333Y-5261904D01*
X-29380952Y-5357142D01*
X-29428571Y-5404761D01*
X-29523809Y-5452380D01*
X-29809523Y-5452380D01*
X-29904761Y-5404761D01*
X-29952380Y-5357142D01*
X-41988095Y-28452380D02*
X-41988095Y-27452380D01*
X-41750000Y-27452380D01*
X-41607142Y-27500000D01*
X-41511904Y-27595238D01*
X-41464285Y-27690476D01*
X-41416666Y-27880952D01*
X-41416666Y-28023809D01*
X-41464285Y-28214285D01*
X-41511904Y-28309523D01*
X-41607142Y-28404761D01*
X-41750000Y-28452380D01*
X-41988095Y-28452380D01*
X-41035714Y-27547619D02*
X-40988095Y-27500000D01*
X-40892857Y-27452380D01*
X-40654761Y-27452380D01*
X-40559523Y-27500000D01*
X-40511904Y-27547619D01*
X-40464285Y-27642857D01*
X-40464285Y-27738095D01*
X-40511904Y-27880952D01*
X-41083333Y-28452380D01*
X-40464285Y-28452380D01*
X-42738095Y-17952380D02*
X-42738095Y-16952380D01*
X-42500000Y-16952380D01*
X-42357142Y-17000000D01*
X-42261904Y-17095238D01*
X-42214285Y-17190476D01*
X-42166666Y-17380952D01*
X-42166666Y-17523809D01*
X-42214285Y-17714285D01*
X-42261904Y-17809523D01*
X-42357142Y-17904761D01*
X-42500000Y-17952380D01*
X-42738095Y-17952380D01*
X-41214285Y-17952380D02*
X-41785714Y-17952380D01*
X-41500000Y-17952380D02*
X-41500000Y-16952380D01*
X-41595238Y-17095238D01*
X-41690476Y-17190476D01*
X-41785714Y-17238095D01*
X-48242619Y5166666D02*
X-47528333Y5166666D01*
X-47385476Y5119047D01*
X-47290238Y5023809D01*
X-47242619Y4880952D01*
X-47242619Y4785714D01*
X-48147380Y5595238D02*
X-48195000Y5642857D01*
X-48242619Y5738095D01*
X-48242619Y5976190D01*
X-48195000Y6071428D01*
X-48147380Y6119047D01*
X-48052142Y6166666D01*
X-47956904Y6166666D01*
X-47814047Y6119047D01*
X-47242619Y5547619D01*
X-47242619Y6166666D01*
X-27666666Y20297619D02*
X-28000000Y20773809D01*
X-28238095Y20297619D02*
X-28238095Y21297619D01*
X-27857142Y21297619D01*
X-27761904Y21250000D01*
X-27714285Y21202380D01*
X-27666666Y21107142D01*
X-27666666Y20964285D01*
X-27714285Y20869047D01*
X-27761904Y20821428D01*
X-27857142Y20773809D01*
X-28238095Y20773809D01*
X-26714285Y20297619D02*
X-27285714Y20297619D01*
X-27000000Y20297619D02*
X-27000000Y21297619D01*
X-27095238Y21154761D01*
X-27190476Y21059523D01*
X-27285714Y21011904D01*
M02*
